<svg xmlns="http://www.w3.org/2000/svg" viewBox="0 0 44.39 37.36"><defs><style>.cls-1{fill:none;stroke:#d90f3f;stroke-miterlimit:10;}</style></defs><g id="Layer_2" data-name="Layer 2"><g id="Layer_6" data-name="Layer 6"><circle class="cls-1" cx="17.33" cy="17.33" r="16.83"/><circle class="cls-1" cx="17.33" cy="17.84" r="10.51"/><polyline class="cls-1" points="17.33 17.84 41.43 17.84 44.02 14.85"/><line class="cls-1" x1="43.88" y1="21.14" x2="41.43" y2="17.84"/><polyline class="cls-1" points="40.44 14.72 37.53 17.84 40.14 21.14"/><line class="cls-1" x1="5.81" y1="37.02" x2="9.96" y2="32.47"/><line class="cls-1" x1="27.69" y1="37.02" x2="23.91" y2="32.83"/><path class="cls-1" d="M17.13,23.76l5.95-6.43a3.77,3.77,0,0,0-.22-3.27c-1-1.42-3.59-1.8-5.73-.27-2.29-1.77-5.1-1.2-6,.31a3.7,3.7,0,0,0,.48,3.83Z"/></g></g></svg>