<svg xmlns="http://www.w3.org/2000/svg" viewBox="0 0 39.24 22.45"><defs><style>.cls-1{fill:none;stroke:#d90f3f;stroke-miterlimit:10;}</style></defs><g id="Layer_2" data-name="Layer 2"><g id="Layer_6" data-name="Layer 6"><path class="cls-1" d="M38.62,9.51a46.74,46.74,0,0,1-6.24-3.62C28,2.87,26.24.54,23.46.72a6.32,6.32,0,0,0-3.9,2C17.71.86,16.19.5,15.16.5c-2.84,0-4.32,2.67-8.71,5.75A32.36,32.36,0,0,1,.63,9.51a19.13,19.13,0,0,0,5.56,8,19.71,19.71,0,0,0,13.43,4.4,19.31,19.31,0,0,0,13.31-4.17A18.71,18.71,0,0,0,38.62,9.51Z"/><path class="cls-1" d="M.63,9.51a34.05,34.05,0,0,0,4.46.93,33.61,33.61,0,0,0,5.25.31,17.78,17.78,0,0,0,10.5,2.71,17.62,17.62,0,0,0,8.29-2.71,37.63,37.63,0,0,0,5-.33,36.76,36.76,0,0,0,4.46-.91"/><path class="cls-1" d="M10.34,10.75a15.5,15.5,0,0,1,18.79,0"/><path class="cls-1" d="M7.51,15.27a16.3,16.3,0,0,0,4.57,2.93,16.39,16.39,0,0,0,5.14,1.26"/><path class="cls-1" d="M6.23,14.36a6.18,6.18,0,0,1-.83-.81,6.41,6.41,0,0,1-.67-.93"/></g></g></svg>