<svg xmlns="http://www.w3.org/2000/svg" viewBox="0 0 34.62 35.18"><defs><style>.cls-1{fill:none;stroke:#d90f3f;stroke-miterlimit:10;}</style></defs><g id="Layer_2" data-name="Layer 2"><g id="Layer_6" data-name="Layer 6"><polyline class="cls-1" points="3.15 21.27 7.21 34.68 27.94 34.68 31.65 21.27"/><line class="cls-1" x1="10.3" y1="21.67" x2="12.5" y2="34.68"/><line class="cls-1" x1="17.4" y1="19.37" x2="17.62" y2="34.68"/><line class="cls-1" x1="24.81" y1="22.46" x2="23.05" y2="34.68"/><path class="cls-1" d="M4.83,11.43c-.9,2-3.08,1.45-4,3.13C-.42,17,2,21.67,4.43,22c1.63.2,2.42-1.66,4.5-1.33,1.48.24,1.78,1.3,2.91,1.1s1.38-1.54,2.91-2.2a5.57,5.57,0,0,1,2.65-.18c1.43.1,2.09.45,3,.05.67-.31.67-.67,1.06-.67.94,0,.93,2.17,2.56,3.45a5.51,5.51,0,0,0,4.1.83A6.52,6.52,0,0,0,30.77,22a6.91,6.91,0,0,0,3.17-4.15c.38-1.62.23-4-1.23-5.34s-3.05-.62-3.8-1.9c-.62-1.07.37-1.79-.08-3.31a4.85,4.85,0,0,0-4.55-3.22c-1.15.13-1.87,1-2.73.53a1.89,1.89,0,0,1-.84-1C19.58,1.34,15.77.7,15.33.62a9.69,9.69,0,0,0-7.46,2,8.21,8.21,0,0,0-3,4.68C4.56,9.34,5.46,10.05,4.83,11.43Z"/><path class="cls-1" d="M11.4,15.8l-.75-4a1.33,1.33,0,0,1,.75-.38,1.38,1.38,0,0,1,1.1.38l.84,3.28a1.14,1.14,0,0,1-1.94.71Z"/><path class="cls-1" d="M6.08,18,2.77,15.6a1.28,1.28,0,0,1,.28-.8,1.4,1.4,0,0,1,1.06-.49L7,16.09a1.15,1.15,0,0,1,.13,1.22A1.13,1.13,0,0,1,6.08,18Z"/><path class="cls-1" d="M15.94,7.22,12.05,8.36a1.33,1.33,0,0,1-.46-.71,1.38,1.38,0,0,1,.27-1.13L15,5.35a1.14,1.14,0,0,1,.9,1.87Z"/><path class="cls-1" d="M21,14.67l-4.06.07a1.41,1.41,0,0,1-.25-.81,1.42,1.42,0,0,1,.56-1l3.38-.27a1.14,1.14,0,0,1,.83.9A1.13,1.13,0,0,1,21,14.67Z"/><path class="cls-1" d="M24.3,10.39,20.69,8.54a1.26,1.26,0,0,1,.16-.83,1.41,1.41,0,0,1,1-.64l3.1,1.36a1.16,1.16,0,0,1,.31,1.19A1.15,1.15,0,0,1,24.3,10.39Z"/><path class="cls-1" d="M29.55,16,26.26,18.4a1.32,1.32,0,0,1-.66-.52,1.4,1.4,0,0,1-.13-1.16l2.62-2.15A1.13,1.13,0,0,1,29.55,16Z"/></g></g></svg>