<svg xmlns="http://www.w3.org/2000/svg" viewBox="0 0 35.54 24.1"><defs><style>.cls-1{fill:none;stroke:#d90f3f;stroke-miterlimit:10;}</style></defs><g id="Layer_2" data-name="Layer 2"><g id="Layer_6" data-name="Layer 6"><polygon class="cls-1" points="0.5 0.5 0.5 5.26 0.5 23.6 35.04 23.6 35.04 0.5 0.5 0.5"/><path class="cls-1" d="M35,5.2.5,5.26"/><line class="cls-1" x1="4.7" y1="2.68" x2="12.35" y2="2.68"/><line class="cls-1" x1="15.72" y1="2.68" x2="31.37" y2="2.68"/><line class="cls-1" x1="22.37" y1="18.04" x2="29.55" y2="10.89"/><circle class="cls-1" cx="23.36" cy="11.92" r="1.41"/><circle class="cls-1" cx="28.65" cy="16.97" r="1.38"/><path class="cls-1" d="M4.93,13.87l5.83,6,5.72-5.79a3.7,3.7,0,0,0-5.56-4.77,4,4,0,0,0-5.11.25A4,4,0,0,0,4.93,13.87Z"/></g></g></svg>