<svg xmlns="http://www.w3.org/2000/svg" viewBox="0 0 28.71 28.65"><defs><style>.cls-1{fill:none;stroke:#d90f3f;stroke-miterlimit:10;}</style></defs><g id="Layer_2" data-name="Layer 2"><g id="Layer_4" data-name="Layer 4"><path class="cls-1" d="M12.46,11.27,1.06,21.84a4.21,4.21,0,0,0,5.78,5.73L17.38,16.46c3.77.66,7.36-.51,9.27-3.09C29.17,10,28.06,5,27.26,4.81c-.53-.1-.78,2.05-2.91,3.81a8.69,8.69,0,0,1-3.88,1.76,3,3,0,0,1-1.76-.89,3,3,0,0,1-.8-2,7.8,7.8,0,0,1,1.24-3.09C20.75,2,23,1.67,22.91,1.19c-.16-.7-5.42-1.61-8.62,1.5A8.48,8.48,0,0,0,12.46,11.27Z"/><path class="cls-1" d="M6,22.74A1.77,1.77,0,0,1,6,25.09a1.58,1.58,0,0,1-2.24.23,1.8,1.8,0,0,1,.08-2.51A1.56,1.56,0,0,1,6,22.74Z"/></g></g></svg>