<svg id="Layer_1" data-name="Layer 1" xmlns="http://www.w3.org/2000/svg" viewBox="0 0 23.72 23.84"><defs><style>.cls-1{fill:#fff;}</style></defs><g id="Layer_2" data-name="Layer 2"><g id="Layer_4" data-name="Layer 4"><path class="cls-1" d="M.6,24.34H24A3.26,3.26,0,0,0,24,22a3.62,3.62,0,0,0-1.06-1.36L15.61,17.1,15.5,15a9.74,9.74,0,0,0,3.16-5.5c.16-.91,1-5.36-2.25-7.75a6.75,6.75,0,0,0-8,.13C5.5,4.2,6.12,8.27,6.35,9.74A11.23,11.23,0,0,0,8.8,15.12v2.05L2.12,20.46A4,4,0,0,0,.78,22.11,3.55,3.55,0,0,0,.6,24.34Z" transform="translate(-0.5 -0.5)"/></g></g></svg>