<svg xmlns="http://www.w3.org/2000/svg" viewBox="0 0 24.72 24.84"><defs><style>.cls-1{fill:none;stroke:#d90f3f;stroke-miterlimit:10;}</style></defs><g id="Layer_2" data-name="Layer 2"><g id="Layer_4" data-name="Layer 4"><path class="cls-1" d="M.6,24.34H24A3.24,3.24,0,0,0,24,22a3.6,3.6,0,0,0-1.06-1.36L15.61,17.1,15.5,15A9.75,9.75,0,0,0,18.66,9.5c.16-.91,1-5.36-2.25-7.75a6.76,6.76,0,0,0-8,.13C5.5,4.2,6.12,8.27,6.35,9.74A11.23,11.23,0,0,0,8.8,15.12v2.05L2.12,20.46A3.94,3.94,0,0,0,.78,22.11,3.56,3.56,0,0,0,.6,24.34Z"/></g></g></svg>