<svg xmlns="http://www.w3.org/2000/svg" viewBox="0 0 29.02 39.29"><defs><style>.cls-1{fill:none;stroke:#d90f3f;stroke-miterlimit:10;}</style></defs><g id="Layer_2" data-name="Layer 2"><g id="Layer_6" data-name="Layer 6"><path class="cls-1" d="M16,35.79H6.82A14.52,14.52,0,0,1,2,30.28,14.68,14.68,0,0,1,.59,22.17,14.44,14.44,0,0,1,11,10.51l0-5A1.56,1.56,0,0,1,9.64,3.9a1.56,1.56,0,0,1,1.24-1.33h7A1.55,1.55,0,0,1,19,4a1.53,1.53,0,0,1-1.15,1.5v5.16a13.71,13.71,0,0,1,6.71,3.66,13.83,13.83,0,0,1,3.84,7.77,15.55,15.55,0,0,1-1.63,8.69,15.3,15.3,0,0,1-4.15,5H18.91"/><path class="cls-1" d="M6.82,35.79a1.57,1.57,0,0,0-1.21,1.5,1.54,1.54,0,0,0,1.12,1.5H22.44a1.84,1.84,0,0,0,.92-1.39,1.94,1.94,0,0,0-.7-1.61"/><rect class="cls-1" x="12.6" y="0.5" width="3.62" height="7.68"/><path class="cls-1" d="M.73,21.41l27.58,0"/><path class="cls-1" d="M7.92,14.35A11.23,11.23,0,0,0,3.86,28.6"/><path class="cls-1" d="M14.63,16.91a7.26,7.26,0,0,1,7.06,7.28A7.24,7.24,0,0,1,15,31.12a7.38,7.38,0,0,1-7.67-7.77A7.26,7.26,0,0,1,14.63,16.91Z"/><path class="cls-1" d="M14.41,29.41l3.59-4a2.2,2.2,0,0,0-.39-2.28,2.32,2.32,0,0,0-3.2.23,2.15,2.15,0,0,0-3.07-.11,2.09,2.09,0,0,0-.17,2.43Z"/></g></g></svg>