<svg xmlns="http://www.w3.org/2000/svg" viewBox="0 0 41.4 38.37"><defs><style>.cls-1{fill:none;stroke:#d90f3f;stroke-miterlimit:10;}</style></defs><g id="Layer_2" data-name="Layer 2"><g id="Layer_6" data-name="Layer 6"><polyline class="cls-1" points="32.23 37.9 36.73 36.22 41.23 34.54"/><path class="cls-1" d="M32.93,25.37a5.9,5.9,0,0,1-7.5-3.51q-1.71-6-3.44-11.93l8.82-3.18L36,18.22a6.06,6.06,0,0,1-.33,4.48,6,6,0,0,1-2.76,2.67l3.8,10.85"/><path class="cls-1" d="M24.28,17.87l11.57,0"/><line class="cls-1" x1="23.58" y1="4.1" x2="25.9" y2="1.99"/><line class="cls-1" x1="20.67" y1="3.57" x2="20.67"/><line class="cls-1" x1="17.82" y1="4.1" x2="15.57" y2="1.99"/><polyline class="cls-1" points="9.18 37.9 4.67 36.22 0.17 34.54"/><path class="cls-1" d="M8.47,25.37a6.06,6.06,0,0,0,4.62-.29A6,6,0,0,0,16,21.86q1.72-6,3.44-11.93L10.59,6.75,5.38,18.22a6.06,6.06,0,0,0,.33,4.48,6,6,0,0,0,2.76,2.67L4.67,36.22"/><path class="cls-1" d="M17.12,17.87l-11.57,0"/></g></g></svg>