<svg xmlns="http://www.w3.org/2000/svg" viewBox="0 0 29.71 29.6"><defs><style>.cls-1{fill:none;stroke:#d90f3f;stroke-miterlimit:10;}</style></defs><g id="Layer_2" data-name="Layer 2"><g id="Layer_4" data-name="Layer 4"><path class="cls-1" d="M15.44.51A14.42,14.42,0,0,1,29.21,15,14.44,14.44,0,0,1,15,29.1,14.53,14.53,0,0,1,.53,13.84,14.45,14.45,0,0,1,15.44.51Z"/><path class="cls-1" d="M14.65,7a2.25,2.25,0,0,1,2.2,2.12,2.19,2.19,0,0,1-1.94,2,2.38,2.38,0,0,1-2.56-2.47A2.26,2.26,0,0,1,14.65,7Z"/><polyline class="cls-1" points="11.87 14.28 16.72 14.28 16.85 21.73 18.93 21.73 18.93 23.5 11.47 23.5 11.47 21.42 13.28 21.42 13.24 14.59"/></g></g></svg>