<svg xmlns="http://www.w3.org/2000/svg" viewBox="0 0 36.4 37.12"><defs><style>.cls-1{fill:none;stroke:#d90f3f;stroke-miterlimit:10;}</style></defs><g id="Layer_2" data-name="Layer 2"><g id="Layer_6" data-name="Layer 6"><path class="cls-1" d="M27.82.52,26.28,1a3.06,3.06,0,0,0-1.5.88A3.36,3.36,0,0,0,24,4.4L.51,4.67A4.53,4.53,0,0,1,1.66,1.76,4.38,4.38,0,0,1,3.6.52H28.75a2.79,2.79,0,0,1,2,.53,3,3,0,0,1,1.06,2.47l.26,9,3.8,3.27V36.61L4.33,36.18H3.6V16.32L19.8,29.71,35.9,15.79"/><path class="cls-1" d="M15.56,26.2q-6,5-12,10"/><path class="cls-1" d="M24,26.12l12,10.49"/><path class="cls-1" d="M7.53,19.57l.07-15"/><path class="cls-1" d="M3.5,16,7.57,12.5"/><path class="cls-1" d="M32.24,18.9l-.14-6.38"/><path class="cls-1" d="M14.42,15.25l5.38,5.52,5.44-5.66A3.41,3.41,0,0,0,19.83,11a3.66,3.66,0,0,0-5.08,0A3.6,3.6,0,0,0,14.42,15.25Z"/></g></g></svg>