<svg xmlns="http://www.w3.org/2000/svg" viewBox="0 0 31.19 41.29"><defs><style>.cls-1{fill:none;stroke:#d90f3f;stroke-miterlimit:10;}</style></defs><g id="Layer_2" data-name="Layer 2"><g id="Layer_6" data-name="Layer 6"><polyline class="cls-1" points="4.29 10.09 0.5 10.09 0.5 40.79 30.68 40.79 30.15 10.09 15.23 10.09"/><path class="cls-1" d="M4.29,6.78v13.1H15.15V6.78H11.4a1.63,1.63,0,0,0-.53-1.41,1.56,1.56,0,0,0-1.29-.31,1.79,1.79,0,0,0-1.09.44,1.82,1.82,0,0,0-.58,1.32Z"/><path class="cls-1" d="M9.68,5.05a3.94,3.94,0,0,1,7.67-1.76"/><path class="cls-1" d="M17.35,9.6c0-2.16,0-4.33-.07-6.49"/><path class="cls-1" d="M19.45,10.09q.21,15.35.43,30.7"/><path class="cls-1" d="M.5,29.82l30,0"/><path class="cls-1" d="M14.78,29.8A3.81,3.81,0,0,1,12,26a3.86,3.86,0,0,1,3.25-3.5,4.1,4.1,0,0,1,4.41,2.41"/><path class="cls-1" d="M19.66,24.92a4.23,4.23,0,0,1,4.12-2.51,4,4,0,0,1,3.71,4,3.92,3.92,0,0,1-3.34,3.35"/><path class="cls-1" d="M14.78,29.8a4.57,4.57,0,0,0-2.61,3.29,4.12,4.12,0,0,0,3.74,4.54,4.09,4.09,0,0,0,3.88-3.08"/><path class="cls-1" d="M24.15,29.79a4,4,0,0,1,3.34,4,3.89,3.89,0,0,1-7.7.76"/><line class="cls-1" x1="6.85" y1="9.29" x2="12" y2="9.29"/><path class="cls-1" d="M9.72,17.37l-2.56-2.7a1.56,1.56,0,0,1,2.48-1.8,1.65,1.65,0,0,1,2.5,2Z"/></g></g></svg>