<svg xmlns="http://www.w3.org/2000/svg" viewBox="0 0 34.55 41.16"><defs><style>.cls-1{fill:none;stroke:#d90f3f;stroke-miterlimit:10;}</style></defs><g id="Layer_2" data-name="Layer 2"><g id="Layer_6" data-name="Layer 6"><path class="cls-1" d="M21,36.76l3.67,3.69,9.13-9.13-3.31-3.18L21.15,37"/><path class="cls-1" d="M24.74,33.55l-1.49-1.4H10.72L.79,22.23A2.49,2.49,0,0,1,1,19.54a2.54,2.54,0,0,1,3.23-.49l5.82,5.78"/><path class="cls-1" d="M29.25,29.35,23.12,23H11.82a2.19,2.19,0,0,0-1.67,1.63,2.27,2.27,0,0,0,1.67,2.52l7.46-.09"/><polygon class="cls-1" points="8.36 18.68 24.11 18.68 24.11 8.62 25.27 8.62 25.27 4.38 7.2 4.38 7.2 8.52 8.43 8.55 8.36 18.68"/><path class="cls-1" d="M8.43,8.55h6.09"/><path class="cls-1" d="M18,8.62h6.12"/><path class="cls-1" d="M14.51,4.61q0,7,0,14.07"/><line class="cls-1" x1="17.99" y1="4.61" x2="17.99" y2="18.48"/><path class="cls-1" d="M10.48,4.38A4,4,0,0,1,11.4,1.8,3.89,3.89,0,0,1,13.29.61l3,3.77L19.48.61a3.87,3.87,0,0,1,2.28,3.77"/></g></g></svg>