<svg xmlns="http://www.w3.org/2000/svg" viewBox="0 0 23.85 41.76"><defs><style>.cls-1{fill:none;stroke:#d90f3f;stroke-miterlimit:10;}</style></defs><g id="Layer_2" data-name="Layer 2"><g id="Layer_6" data-name="Layer 6"><path class="cls-1" d="M12.33,41.76V23.67a3.08,3.08,0,0,0,1.59-1.06,3.13,3.13,0,0,0,.62-2.16h2.07a4.58,4.58,0,0,0,3.31-4.63L20,2.6A10.42,10.42,0,0,0,9.64,10.17c.09,2.4.18,4.79.26,7.19a4.5,4.5,0,0,0,4.64,3.09"/><path class="cls-1" d="M12.33,23.67a3.3,3.3,0,0,1-2.26-1.26,3.2,3.2,0,0,1-.63-1.87,4.56,4.56,0,0,1-3.33-1.26,4.46,4.46,0,0,1-1.3-2.86q-.09-7-.16-14a9,9,0,0,1,4.29.8A9,9,0,0,1,12.2,5.75"/><path class="cls-1" d="M9.44,20.54l5.1-.09"/><path class="cls-1" d="M9.22,3.38a5,5,0,0,1,1.24-1.7A5.22,5.22,0,0,1,12.53.53a6.56,6.56,0,0,1,1.59,1,6.7,6.7,0,0,1,1.49,1.87"/><path class="cls-1" d="M12.33,34.66l5.48-3.35"/><path class="cls-1" d="M12.33,31.38l-6-3.14"/><path class="cls-1" d="M15.23,32.89A3.19,3.19,0,0,1,15,30.72a3.55,3.55,0,0,1,2.35-2.35,25.58,25.58,0,0,1,5.89,0c-.16.54-.36,1.13-.6,1.75a17.46,17.46,0,0,1-.83,1.82,5.1,5.1,0,0,1-4.07,2.38,4.54,4.54,0,0,1-2.64-.92"/><path class="cls-1" d="M8.92,29.88a3.21,3.21,0,0,1-1.65,1.44A3.59,3.59,0,0,1,4,30.68a26.67,26.67,0,0,1-1.75-2.29A26.12,26.12,0,0,1,.72,25.8c.54-.18,1.13-.34,1.78-.49s1.37-.26,2-.33a5.14,5.14,0,0,1,4.25,2,4.65,4.65,0,0,1,.71,2.71"/></g></g></svg>