<svg xmlns="http://www.w3.org/2000/svg" viewBox="0 0 23.59 41.48"><defs><style>.cls-1{fill:none;stroke:#d90f3f;stroke-miterlimit:10;}</style></defs><g id="Layer_2" data-name="Layer 2"><g id="Layer_6" data-name="Layer 6"><path class="cls-1" d="M11.81,41a1.9,1.9,0,0,1-1.21-.26,2,2,0,0,1-.86-1.51q.07-10.29.14-20.59L1,9.26A6.79,6.79,0,0,1,1.9,2.55C4.05.06,8.49-.33,11.81,2.32c3.36-2.63,7.86-2.11,10,.49A6.88,6.88,0,0,1,22.35,10L13.7,18.63c0,3.94.08,7.87.11,11.81h4.47a1.54,1.54,0,0,1,.07,2.91l-4.54,0V35.2l4.54-.06a1.69,1.69,0,0,1,1,1.65,1.67,1.67,0,0,1-1,1.39h-4.6v1.49a2,2,0,0,1-.89,1A2.11,2.11,0,0,1,11.81,41Z"/><circle class="cls-1" cx="11.82" cy="8.46" r="2.34"/><path class="cls-1" d="M6.67,11.58A4.35,4.35,0,0,1,3.29,7.05,4.32,4.32,0,0,1,6.67,3.31"/><line class="cls-1" x1="8.32" y1="13.4" x2="7.26" y2="12.37"/></g></g></svg>