<svg xmlns="http://www.w3.org/2000/svg" viewBox="0 0 38.23 40.32"><defs><style>.cls-1{fill:none;stroke:#d90f3f;stroke-miterlimit:10;}</style></defs><g id="Layer_2" data-name="Layer 2"><g id="Layer_6" data-name="Layer 6"><path class="cls-1" d="M3.59,20.56H32.35V17.93l4.86,2.63-4.9,2.8c0-.94,0-1.87,0-2.8"/><path class="cls-1" d="M8,20.56a3,3,0,0,0-2-3H1.15l2.44,3L1.15,23.17H6.08A3,3,0,0,0,8,20.56Z"/><path class="cls-1" d="M23.88,5.33,12.3,20.56,23.48,34.85"/><path class="cls-1" d="M25.73.51C24.83.4,23.88,1.77,23.62,3c-.31,1.36.26,2.53,1.19,4.44a27.34,27.34,0,0,0,1.85,3.17c1.1,1.64,1.45,1.81,1.59,2.59.23,1.27-.44,2.38-1.13,3.5a16.38,16.38,0,0,1-3.5,3.91s1.24,1,2.25,2.05a7.57,7.57,0,0,1,1.92,2.45A5.06,5.06,0,0,1,28,27.91c-.1.47-.33,1.21-2.36,3.83-1.51,2-1.88,2.19-2.12,3.11a5,5,0,0,0,.2,2.91c.24.64.64,1.71,1.59,2a1.48,1.48,0,0,0,1.52-.33c.37-.49.09-1.26-.06-1.66-.28-.73-.6-.82-.73-1.32a2.59,2.59,0,0,1,.66-2c2.4-3.31,3.59-5,3.92-6.47a6.46,6.46,0,0,0-.51-4.19,12.45,12.45,0,0,0-2.88-3.23s3.91-3.94,3.51-7.38c-.31-2.63-3.15-5-4.63-8.11a2,2,0,0,1-.2-1.72c.3-.51.92-.41,1.12-.86A1.73,1.73,0,0,0,25.73.51Z"/></g></g></svg>