<svg xmlns="http://www.w3.org/2000/svg" viewBox="0 0 29.58 45.92"><defs><style>.cls-1{fill:none;stroke:#d90f3f;stroke-miterlimit:10;}</style></defs><g id="Layer_2" data-name="Layer 2"><g id="Layer_6" data-name="Layer 6"><path class="cls-1" d="M10.43,34.71A20,20,0,0,1,.5,17.34C.57,6.56,9.43.85,10,.5l4.6.06v10.6H10.89L8.08,9.07A13.92,13.92,0,0,0,4.8,17,14.14,14.14,0,0,0,8,26.81l2.41-2,4.27-.07L14.6,34.75Z"/><path class="cls-1" d="M11.78,38.78v-14"/><path class="cls-1" d="M11.69,11.16c0-3.55,0-7.09,0-10.64"/><path class="cls-1" d="M11.78,38.65a1.12,1.12,0,0,1-.09.69c-.25.48-.74.46-1,1a1,1,0,0,0-.13.81c.21.56,1.13.46,1.32,1a.78.78,0,0,1,0,.46c-.22.65-1.2.62-1.35,1.22a.73.73,0,0,0,0,.36c.16.81,1.15,1.19,1.31,1.25"/><path class="cls-1" d="M21.32,23.86l5.34-5.74a3.43,3.43,0,0,0-.05-3.89c-1.1-1.27-3.67-1.34-5.26.5a3.51,3.51,0,0,0-5.13-.7,3.39,3.39,0,0,0-.1,4.13Z"/><path class="cls-1" d="M26,10.23l2.74-2.95A1.78,1.78,0,0,0,29,5.76c-.32-.77-1.63-1.23-3-.61a2.06,2.06,0,0,0-2.77.52,1.89,1.89,0,0,0,.09,1.63Z"/></g></g></svg>