<svg xmlns="http://www.w3.org/2000/svg" viewBox="0 0 26.41 26.08"><defs><style>.cls-1{fill:none;}.cls-1,.cls-2{stroke:#d90f3f;stroke-miterlimit:10;}.cls-2{fill:#d90f3f;}</style></defs><g id="Layer_2" data-name="Layer 2"><g id="Layer_4" data-name="Layer 4"><path class="cls-1" d="M25.56,21.59H.94a1.15,1.15,0,0,1-.44-.88,1.2,1.2,0,0,1,.44-.89,7.11,7.11,0,0,0,2.3-1.67,7.14,7.14,0,0,0,1.67-3.36c.35-3.32.71-6.64,1.06-10A5.44,5.44,0,0,1,7.38,2.09,5.51,5.51,0,0,1,10.47.5h5.65A5.51,5.51,0,0,1,19,2.09,5.41,5.41,0,0,1,20.44,4.9l1,9.72a6.3,6.3,0,0,0,1.94,4.06,5.89,5.89,0,0,0,2.21,1.23,1.25,1.25,0,0,1,.35.8A1.22,1.22,0,0,1,25.56,21.59Z"/><path class="cls-2" d="M9.85,23.37l6.71.09a4.19,4.19,0,0,1-.71,1,4.13,4.13,0,0,1-.88.71,4,4,0,0,1-1.76.44,4.12,4.12,0,0,1-1.86-.42,3.38,3.38,0,0,1-.88-.73A3.63,3.63,0,0,1,9.85,23.37Z"/></g></g></svg>