<svg xmlns="http://www.w3.org/2000/svg" viewBox="0 0 60.52 40.96"><defs><style>.cls-1{fill:none;stroke:#d90f3f;stroke-miterlimit:10;}</style></defs><g id="Layer_2" data-name="Layer 2"><g id="Layer_8" data-name="Layer 8"><path class="cls-1" d="M13.77,12.37h33.9A14.18,14.18,0,0,1,60,24.79a14.87,14.87,0,0,1-.81,6.35,15.09,15.09,0,0,1-4.59,6.48,14.87,14.87,0,0,1-8.44,2.84,15,15,0,0,1-8.85-2.84,15.53,15.53,0,0,1-3.61-3.55l-3.24,0H27.28l-3.85,3.58a15.25,15.25,0,0,1-8.78,2.84,13.55,13.55,0,0,1-8.71-2.84,14.69,14.69,0,0,1-3.58-4.25A15.11,15.11,0,0,1,.54,25,14.89,14.89,0,0,1,13.77,12.37Z"/><path class="cls-1" d="M27.8,12.37l.05-2.27H33v2.27"/><path class="cls-1" d="M30,10.1A13.28,13.28,0,0,1,30,8a6.15,6.15,0,0,1,.44-2.38c.76-1.48,2.91-1.79,3.37-1.85,3.27-.47,4.33,1.94,8,1.69.94-.07,2.47-.18,3.28-1.32,1.06-1.51.08-3.67,0-3.92"/><path class="cls-1" d="M12.92,24.72V20.2h3.75v4.52"/><path class="cls-1" d="M12.93,28.1v4.69h3.75l0-4.69"/><polyline class="cls-1" points="12.93 28.29 8.51 28.29 8.51 24.54 12.93 24.54"/><polyline class="cls-1" points="16.68 24.54 21.1 24.54 21.1 28.29 16.68 28.29"/><circle class="cls-1" cx="40.62" cy="26.41" r="2.54"/><circle class="cls-1" cx="46.05" cy="20.92" r="2.54"/><circle class="cls-1" cx="46.05" cy="31.8" r="2.54"/><circle class="cls-1" cx="51.52" cy="26.41" r="2.54"/></g></g></svg>