<svg xmlns="http://www.w3.org/2000/svg" viewBox="0 0 36.69 38.05"><defs><style>.cls-1{fill:none;stroke:#d90f3f;stroke-miterlimit:10;}</style></defs><g id="Layer_2" data-name="Layer 2"><g id="Layer_6" data-name="Layer 6"><path class="cls-1" d="M14.34,24.62,27.08,13a7.17,7.17,0,0,0-1.45-9.65,9,9,0,0,0-11.29.27C10.72.54,5.1.94,2.26,4.09a7.13,7.13,0,0,0,.64,10Z"/><path class="cls-1" d="M25.25,26.53l10-9.21a5.71,5.71,0,0,0-1.14-7.63,7,7,0,0,0-8.83.21,7,7,0,0,0-9.46.38,5.69,5.69,0,0,0,.51,7.93Z"/><line class="cls-1" x1="3.19" y1="21.11" x2="3.19" y2="25.68"/><line class="cls-1" x1="33.82" y1="26.01" x2="33.82" y2="30.77"/><line class="cls-1" x1="31.84" x2="31.84" y2="5.69"/><path class="cls-1" d="M14.42,38.05q0-6.72-.08-13.43"/><path class="cls-1" d="M25.3,37.46q0-5.47-.05-10.93"/><path class="cls-1" d="M6.49,14.43a6,6,0,0,1-3-7,6.06,6.06,0,0,1,7.74-3.64"/><line class="cls-1" x1="7.5" y1="14.93" x2="8.35" y2="15.44"/><path class="cls-1" d="M13.25,23.62l-1.59,3.53L17,27.09l-1.26-3.7"/><path class="cls-1" d="M24.19,26,22.82,28.7l4.54-.05-1.08-2.83"/></g></g></svg>