<svg xmlns="http://www.w3.org/2000/svg" viewBox="0 0 40.99 39.29"><defs><style>.cls-1{fill:none;stroke:#d90f3f;stroke-miterlimit:10;}</style></defs><g id="Layer_2" data-name="Layer 2"><g id="Layer_6" data-name="Layer 6"><polyline class="cls-1" points="40.65 11.16 35.76 15.72 35.49 20.95 33.31 23.8"/><polyline class="cls-1" points="33.7 4.67 29.27 9.1 23.98 9.37 21.2 11.62"/><polyline class="cls-1" points="0.35 12.96 6.48 19.01 7.45 22.98 8.59 24.24"/><path class="cls-1" d="M7.94,5.11,12.22,9.7l5.91.22,7.94,7.24a2.46,2.46,0,0,1-.17,2.91,2.49,2.49,0,0,1-3.23.39l-5.36-4.83L7.46,25.35a2.26,2.26,0,0,0-.26,2.58,2.33,2.33,0,0,0,3.28.46,2.35,2.35,0,0,0,3.14,3.25,2.26,2.26,0,0,0,.07,2.28,2.33,2.33,0,0,0,2.87.76,2.23,2.23,0,0,0,3,3l1.39-1.33"/><path class="cls-1" d="M35.26,25.91l-4.1-3.77a2.3,2.3,0,0,0-2.88,3.05,2.51,2.51,0,0,0-3.21,3.3,2,2,0,0,0-2.45.37,2,2,0,0,0-.23,2.31,2.42,2.42,0,0,0-3.15,3.28c1.23,1.27,2.45,2.54,3.68,3.8a2.42,2.42,0,0,0,3.68-3,2.25,2.25,0,0,0,3.19-3,2.16,2.16,0,0,0,2.52-.19,2.19,2.19,0,0,0,.28-2.87,2.32,2.32,0,0,0,2.27-.57A2.37,2.37,0,0,0,35.26,25.91Z"/><path class="cls-1" d="M21.05,7.42l3.37-3.48a2.24,2.24,0,0,0-3.55-2.71A2.31,2.31,0,0,0,18,1a2.34,2.34,0,0,0-.11,3.41Z"/></g></g></svg>