<svg xmlns="http://www.w3.org/2000/svg" viewBox="0 0 33.65 37.24"><defs><style>.cls-1{fill:none;stroke:#d90f3f;stroke-miterlimit:10;}</style></defs><g id="Layer_2" data-name="Layer 2"><g id="Layer_6" data-name="Layer 6"><polygon class="cls-1" points="0.51 4.18 0.86 36.74 33.15 36.74 33.15 4.18 0.51 4.18"/><path class="cls-1" d="M26.93,35.86l5.38-5.47H26.93Z"/><path class="cls-1" d="M.58,11.21l32.57,0"/><line class="cls-1" x1="12.66" y1="8.07" x2="21.49" y2="8.07"/><path class="cls-1" d="M5.76,7.56a3.08,3.08,0,0,0,4.12,0L9.79,1.49A2.87,2.87,0,0,0,7.67.61a2.81,2.81,0,0,0-1.91.88Z"/><path class="cls-1" d="M24,7.45A3.07,3.07,0,0,0,26,8.24a3.11,3.11,0,0,0,2.07-.79c0-2-.05-4-.08-6.07A2.89,2.89,0,0,0,25.91.5,2.82,2.82,0,0,0,24,1.38Z"/><path class="cls-1" d="M16.87,30.83l7.59-7.63a4.78,4.78,0,0,0-.84-4.89,5,5,0,0,0-6.79,0c-2.29-1.85-5.4-1.44-6.76.36A4.56,4.56,0,0,0,10,23.64Z"/></g></g></svg>