<svg xmlns="http://www.w3.org/2000/svg" viewBox="0 0 343 418.1"><defs><style>.cls-1{fill:#39182c;stroke:#39182c;}.cls-1,.cls-2{stroke-miterlimit:10;}.cls-2{fill:#db1e43;stroke:#db1e43;}.cls-3{font-size:140px;font-family:MyriadPro-Regular, Myriad Pro;}.cls-3,.cls-6{fill:#f7e8ea;}.cls-4{font-size:92px;fill:#231f20;font-family:Bella-Notes---Personal-Use, Bella Notes - Personal Use;}.cls-5{fill:#5e0c20;opacity:0.38;}</style></defs><g id="Layer_2" data-name="Layer 2"><g id="Layer_4" data-name="Layer 4"><polygon class="cls-1" points="0.5 264.74 0.5 88.97 170.97 0.56 342.5 88.44 342.5 264.74 171.5 352.62 0.5 264.74"/></g><g id="Layer_6" data-name="Layer 6"><path class="cls-2" d="M171.5,330.56a577.14,577.14,0,0,1-69.35-62.12A576.84,576.84,0,0,1,45,197.86C15.56,158,25.38,102.64,62.26,77.15c32.41-22.4,79.61-17.53,109.24,13.77,26.42-27.1,64.88-35.71,94.09-22.31,38.88,17.83,58.62,73.37,33.15,121.48a431.74,431.74,0,0,1-56.12,77.65A431.33,431.33,0,0,1,171.5,330.56Z"/><text class="cls-3" transform="translate(98.56 223.17)">10</text><text class="cls-4" transform="translate(82.32 396.94)">ScoreMe</text><path class="cls-5" d="M171.5,330.56c-1.1-1.11,8.83-12.41,16.15-21.09,12.41-14.71,34.07-40.4,51.35-70.67a297.41,297.41,0,0,0,20.65-44.21c4.09-11.07,10.22-28,13.5-49.76a213.1,213.1,0,0,0-2-73.32A74.34,74.34,0,0,1,293,89.77c11.61,14.38,14.45,29.15,16.15,38.12,1.46,7.73,4,22.07-.56,39.22A80.91,80.91,0,0,1,300.78,186a473.64,473.64,0,0,1-39.95,60.31s-24.87,31.12-52.27,56c-1.77,1.6.38-.39-25.94,20.91C174.85,329.53,172,331.07,171.5,330.56Z"/><path class="cls-6" d="M60.85,176.5a68.52,68.52,0,0,1-9.7-37.06c.15-4.86,1-23.82,14.29-39.35,15.13-17.67,38.32-21.47,38.3-21.53a60.75,60.75,0,0,0-18,9.18,69.51,69.51,0,0,0-14.83,14.47,70.92,70.92,0,0,0-11.29,22.23,71.8,71.8,0,0,0-2.83,26.65"/></g></g></svg>